<svg width="500" height="180" viewBox="0 0 500 180">
                            <defs>
                                <linearGradient id="barGradient" x1="0%" y1="0%" x2="0%" y2="100%">
                                    <stop offset="0%" style="stop-color:#EF5350;stop-opacity:1" />
                                    <stop offset="100%" style="stop-color:#E53935;stop-opacity:1" />
                                </linearGradient>
                            </defs>
                            <rect width="500" height="180" fill="#ffffff"/>
                            <rect x="60" y="20" width="420" height="140" fill="#FAFAFA" stroke="#E0E0E0" stroke-width="1" rx="3"/>
                            <line x1="60" y1="60" x2="480" y2="60" stroke="#E0E0E0" stroke-width="0.5"/><line x1="60" y1="100" x2="480" y2="100" stroke="#E0E0E0" stroke-width="0.5"/><line x1="60" y1="140" x2="480" y2="140" stroke="#E0E0E0" stroke-width="0.5"/>
                            <text x="52" y="35" font-size="9" fill="#455A64" text-anchor="end">۱۵۰,۰۰۰</text><text x="52" y="75" font-size="9" fill="#455A64" text-anchor="end">۱۲۰,۰۰۰</text><text x="52" y="115" font-size="9" fill="#455A64" text-anchor="end">۷۵,۰۰۰</text><text x="52" y="155" font-size="9" fill="#455A64" text-anchor="end">۳۸,۰۰۰</text><text x="52" y="165" font-size="9" fill="#455A64" text-anchor="end">۰</text>
                            <rect x="64.552631578947" y="151" width="13" height="9" fill="#E53935" rx="2"/><polygon points="77.552631578947,151 80.552631578947,149 80.552631578947,158 77.552631578947,160" fill="#C62828"/><polygon points="64.552631578947,151 77.552631578947,151 80.552631578947,149 67.552631578947,149" fill="#FF8A80"/><rect x="86.657894736842" y="160" width="13" height="0" fill="#E53935" rx="2"/><polygon points="99.657894736842,160 102.65789473684,158 102.65789473684,158 99.657894736842,160" fill="#C62828"/><polygon points="86.657894736842,160 99.657894736842,160 102.65789473684,158 89.657894736842,158" fill="#FF8A80"/><rect x="108.76315789474" y="159" width="13" height="1" fill="#E53935" rx="2"/><polygon points="121.76315789474,159 124.76315789474,157 124.76315789474,158 121.76315789474,160" fill="#C62828"/><polygon points="108.76315789474,159 121.76315789474,159 124.76315789474,157 111.76315789474,157" fill="#FF8A80"/><rect x="130.86842105263" y="159" width="13" height="1" fill="#E53935" rx="2"/><polygon points="143.86842105263,159 146.86842105263,157 146.86842105263,158 143.86842105263,160" fill="#C62828"/><polygon points="130.86842105263,159 143.86842105263,159 146.86842105263,157 133.86842105263,157" fill="#FF8A80"/><rect x="152.97368421053" y="159" width="13" height="1" fill="#E53935" rx="2"/><polygon points="165.97368421053,159 168.97368421053,157 168.97368421053,158 165.97368421053,160" fill="#C62828"/><polygon points="152.97368421053,159 165.97368421053,159 168.97368421053,157 155.97368421053,157" fill="#FF8A80"/><rect x="175.07894736842" y="158" width="13" height="2" fill="#E53935" rx="2"/><polygon points="188.07894736842,158 191.07894736842,156 191.07894736842,158 188.07894736842,160" fill="#C62828"/><polygon points="175.07894736842,158 188.07894736842,158 191.07894736842,156 178.07894736842,156" fill="#FF8A80"/><rect x="197.18421052632" y="158" width="13" height="2" fill="#E53935" rx="2"/><polygon points="210.18421052632,158 213.18421052632,156 213.18421052632,158 210.18421052632,160" fill="#C62828"/><polygon points="197.18421052632,158 210.18421052632,158 213.18421052632,156 200.18421052632,156" fill="#FF8A80"/><rect x="219.28947368421" y="157" width="13" height="3" fill="#E53935" rx="2"/><polygon points="232.28947368421,157 235.28947368421,155 235.28947368421,158 232.28947368421,160" fill="#C62828"/><polygon points="219.28947368421,157 232.28947368421,157 235.28947368421,155 222.28947368421,155" fill="#FF8A80"/><rect x="241.39473684211" y="157" width="13" height="3" fill="#E53935" rx="2"/><polygon points="254.39473684211,157 257.39473684211,155 257.39473684211,158 254.39473684211,160" fill="#C62828"/><polygon points="241.39473684211,157 254.39473684211,157 257.39473684211,155 244.39473684211,155" fill="#FF8A80"/><rect x="263.5" y="156" width="13" height="4" fill="#E53935" rx="2"/><polygon points="276.5,156 279.5,154 279.5,158 276.5,160" fill="#C62828"/><polygon points="263.5,156 276.5,156 279.5,154 266.5,154" fill="#FF8A80"/><rect x="285.60526315789" y="156" width="13" height="4" fill="#E53935" rx="2"/><polygon points="298.60526315789,156 301.60526315789,154 301.60526315789,158 298.60526315789,160" fill="#C62828"/><polygon points="285.60526315789,156 298.60526315789,156 301.60526315789,154 288.60526315789,154" fill="#FF8A80"/><rect x="307.71052631579" y="155" width="13" height="5" fill="#E53935" rx="2"/><polygon points="320.71052631579,155 323.71052631579,153 323.71052631579,158 320.71052631579,160" fill="#C62828"/><polygon points="307.71052631579,155 320.71052631579,155 323.71052631579,153 310.71052631579,153" fill="#FF8A80"/><rect x="329.81578947368" y="153" width="13" height="7" fill="#E53935" rx="2"/><polygon points="342.81578947368,153 345.81578947368,151 345.81578947368,158 342.81578947368,160" fill="#C62828"/><polygon points="329.81578947368,153 342.81578947368,153 345.81578947368,151 332.81578947368,151" fill="#FF8A80"/><rect x="351.92105263158" y="149" width="13" height="11" fill="#E53935" rx="2"/><polygon points="364.92105263158,149 367.92105263158,147 367.92105263158,158 364.92105263158,160" fill="#C62828"/><polygon points="351.92105263158,149 364.92105263158,149 367.92105263158,147 354.92105263158,147" fill="#FF8A80"/><rect x="374.02631578947" y="143" width="13" height="17" fill="#E53935" rx="2"/><polygon points="387.02631578947,143 390.02631578947,141 390.02631578947,158 387.02631578947,160" fill="#C62828"/><polygon points="374.02631578947,143 387.02631578947,143 390.02631578947,141 377.02631578947,141" fill="#FF8A80"/><rect x="396.13157894737" y="134" width="13" height="26" fill="#E53935" rx="2"/><polygon points="409.13157894737,134 412.13157894737,132 412.13157894737,158 409.13157894737,160" fill="#C62828"/><polygon points="396.13157894737,134 409.13157894737,134 412.13157894737,132 399.13157894737,132" fill="#FF8A80"/><rect x="418.23684210526" y="118" width="13" height="42" fill="#E53935" rx="2"/><polygon points="431.23684210526,118 434.23684210526,116 434.23684210526,158 431.23684210526,160" fill="#C62828"/><polygon points="418.23684210526,118 431.23684210526,118 434.23684210526,116 421.23684210526,116" fill="#FF8A80"/><rect x="440.34210526316" y="90" width="13" height="70" fill="#E53935" rx="2"/><polygon points="453.34210526316,90 456.34210526316,88 456.34210526316,158 453.34210526316,160" fill="#C62828"/><polygon points="440.34210526316,90 453.34210526316,90 456.34210526316,88 443.34210526316,88" fill="#FF8A80"/><rect x="462.44736842105" y="20" width="13" height="140" fill="#E53935" rx="2"/><polygon points="475.44736842105,20 478.44736842105,18 478.44736842105,158 475.44736842105,160" fill="#C62828"/><polygon points="462.44736842105,20 475.44736842105,20 478.44736842105,18 465.44736842105,18" fill="#FF8A80"/>
                            <text x="71.052631578947" y="175" font-size="9" fill="#37474F" text-anchor="middle">۸۴</text><text x="93.157894736842" y="175" font-size="9" fill="#37474F" text-anchor="middle">۸۶</text><text x="115.26315789474" y="175" font-size="9" fill="#37474F" text-anchor="middle">۸۷</text><text x="137.36842105263" y="175" font-size="9" fill="#37474F" text-anchor="middle">۸۸</text><text x="159.47368421053" y="175" font-size="9" fill="#37474F" text-anchor="middle">۸۹</text><text x="181.57894736842" y="175" font-size="9" fill="#37474F" text-anchor="middle">۹۰</text><text x="203.68421052632" y="175" font-size="9" fill="#37474F" text-anchor="middle">۹۱</text><text x="225.78947368421" y="175" font-size="9" fill="#37474F" text-anchor="middle">۹۲</text><text x="247.89473684211" y="175" font-size="9" fill="#37474F" text-anchor="middle">۹۳</text><text x="270" y="175" font-size="9" fill="#37474F" text-anchor="middle">۹۴</text><text x="292.10526315789" y="175" font-size="9" fill="#37474F" text-anchor="middle">۹۵</text><text x="314.21052631579" y="175" font-size="9" fill="#37474F" text-anchor="middle">۹۶</text><text x="336.31578947368" y="175" font-size="9" fill="#37474F" text-anchor="middle">۹۷</text><text x="358.42105263158" y="175" font-size="9" fill="#37474F" text-anchor="middle">۹۸</text><text x="380.52631578947" y="175" font-size="9" fill="#37474F" text-anchor="middle">۹۹</text><text x="402.63157894737" y="175" font-size="9" fill="#37474F" text-anchor="middle">۰۰</text><text x="424.73684210526" y="175" font-size="9" fill="#37474F" text-anchor="middle">۰۱</text><text x="446.84210526316" y="175" font-size="9" fill="#37474F" text-anchor="middle">۰۲</text><text x="468.94736842105" y="175" font-size="9" fill="#37474F" text-anchor="middle">۰۳</text>
                        </svg>